<svg xmlns="http://www.w3.org/2000/svg" width="113mm" height="52mm" viewBox="0 0 113.001 52" fill="#61615f"><path d="M1.54 24.627c.74-.182 1.295-.836 1.295-1.546 0-.71-.555-1.09-1.294-.909-.74.182-1.28.832-1.28 1.542 0 .71.54 1.095 1.28.913zM.463 26.134v7.986l2.157-.53v-7.986zm9.335-2.442c-.924.227-1.956.703-2.896 1.318-.54-.222-1.233-.23-2.065-.025v8.06l2.157-.53v-6.02c.663-.473 1.248-.794 1.926-.96 1.202-.296 1.849.107 1.849 1.216v4.836l2.156-.53v-5.013c0-2.13-1.155-2.837-3.127-2.352zm12.864-3.014l-2.311.568c-.57 1.649-1.31 3.383-2.11 5.118a25.292 25.292 0 01-2.127-4.077l-2.326.572a63.033 63.033 0 004.375 7.059l.124-.03c1.602-3.071 3.034-6.026 4.375-9.21zm2.264-1.799c.74-.182 1.295-.836 1.295-1.546 0-.71-.555-1.09-1.295-.909-.74.182-1.278.832-1.278 1.542 0 .71.539 1.095 1.278.913zm-1.078 1.507v7.987l2.157-.53v-7.987zm4.375 6.911l2.157-.53V15.084l-2.157 1.121zm4.375-1.075l2.157-.53V14.008l-2.157 1.122zm5.454-10.569c.74-.182 1.294-.836 1.294-1.546 0-.71-.554-1.09-1.294-.91-.74.183-1.279.833-1.279 1.543s.54 1.095 1.279.913zm-1.078 1.507v7.986l2.156-.53V16.63zm11.307.03c0-1.863-1.324-2.631-3.574-2.078-1.201.295-2.403.783-3.25 1.301v1.509c.893-.456 1.956-.866 2.804-1.074 1.186-.291 1.864.104 1.864 1.065v.474a6.657 6.657 0 00-1.957.17c-2.141.526-3.39 1.75-3.39 3.317 0 1.568 1.156 2.201 3.067 1.732a8.284 8.284 0 002.557-1.132c.524.138 1.202.134 1.88-.033zm-5.268 4.091c0-.695.647-1.253 1.694-1.51a3.482 3.482 0 011.418-.068V21.3a4.91 4.91 0 01-1.418.615c-1.047.257-1.694.032-1.694-.634zm8.488.443c.77-.19 1.402-.951 1.402-1.69 0-.74-.631-1.191-1.402-1.002-.77.19-1.402.95-1.402 1.69s.632 1.19 1.402 1.002zm4.406-10.46c.74-.181 1.294-.835 1.294-1.545s-.554-1.091-1.294-.91c-.74.182-1.278.832-1.278 1.542 0 .71.539 1.095 1.278.913zm-1.078 1.508v7.986l2.157-.53v-7.986zm9.336-2.442c-.925.226-1.957.702-2.897 1.317-.539-.222-1.232-.23-2.064-.025v8.06l2.157-.53v-6.019c.662-.473 1.248-.795 1.926-.961 1.201-.296 1.848.107 1.848 1.217v4.836l2.157-.53V12.68c0-2.13-1.155-2.837-3.127-2.352zm5.746-2.286v1.02l-1.202.296v1.479l1.202-.295v6.507l2.141-.527v-6.507l2.28-.56v-1.48l-2.28.561v-.843c0-.74.632-1.382 1.541-1.606a8.141 8.141 0 011.017-.176V4.39a9.38 9.38 0 00-1.71.243c-1.787.439-2.989 1.8-2.989 3.411zm6.825-1.899c.74-.182 1.294-.836 1.294-1.546 0-.71-.555-1.09-1.294-.909-.74.182-1.279.832-1.279 1.542 0 .71.54 1.095 1.279.913zm-1.079 9.493l2.157-.53V7.122l-2.157.53zM84.993 5.21c-.924.227-1.956.702-2.896 1.318-.54-.222-1.233-.23-2.064-.025v8.06l2.156-.53v-6.02c.663-.473 1.248-.794 1.926-.96 1.202-.296 1.849.107 1.849 1.216v4.836l2.157-.53V7.562c0-2.13-1.156-2.837-3.128-2.352zm6.332-2.65c.74-.183 1.294-.837 1.294-1.546 0-.71-.555-1.092-1.294-.91-.74.182-1.279.832-1.279 1.542 0 .71.54 1.095 1.279.913zm-1.078 1.506v7.987l2.156-.53V3.535zm8.426 4.436c-.831.205-1.386-.206-1.386-1.034V3.815l2.465-.606V1.73l-2.465.606V-.001L95.13 1.121v1.745l-1.202.295v1.48l1.202-.296v3.978c0 1.612 1.14 2.397 2.85 1.977a12.272 12.272 0 001.849-.632V8.145c-.385.139-.77.263-1.156.357zm10.122-5.12c0-2.41-1.618-3.625-4.006-3.038-2.403.59-4.02 2.674-4.02 5.188 0 2.648 1.648 3.677 4.128 3.067 1.156-.283 2.48-.831 3.313-1.36V5.714c-.879.482-2.019.94-2.82 1.137-1.664.408-2.234-.058-2.388-1.188l5.716-1.405c.03-.244.077-.596.077-.877zm-4.006-1.47c1.063-.262 1.664.36 1.803 1.538l-3.605.887c.123-1.229.724-2.16 1.802-2.425zm6.81 5.04c.77-.189 1.402-.95 1.402-1.69s-.632-1.19-1.402-1.001c-.77.19-1.402.95-1.402 1.69s.632 1.19 1.402 1.001zM8.581 38.928L6.424 40.05v3.534c-.662-.207-1.463-.217-2.28-.016-2.48.61-4.144 2.69-4.144 5.189 0 2.47 1.664 3.702 4.175 3.085a7.682 7.682 0 002.496-1.13c.523.166 1.155.159 1.91-.027zm-6.347 9.265c0-1.523.97-2.767 2.45-3.13a3.01 3.01 0 011.74.104v4.111c-.57.377-1.17.672-1.694.801-1.541.379-2.496-.392-2.496-1.886zm9.644-7.62c.74-.182 1.294-.836 1.294-1.546 0-.71-.555-1.091-1.294-.91-.74.182-1.279.833-1.279 1.542 0 .71.54 1.095 1.279.914zm-1.079 1.507v7.986l2.157-.53V41.55zm5.793 4.093c0-.252.077-.507.231-.737.54.089 1.186.048 1.926-.134 2.157-.53 3.605-1.92 3.605-3.489 0-.917-.524-1.542-1.356-1.826l1.433-.662-.447-1.31-4.776 2.52c-.015.003-.03.022-.046.025-1.294.688-2.034 1.802-2.034 2.97 0 .666.247 1.167.694 1.5-.724.785-1.125 1.638-1.125 2.363 0 3.002 6.07-.176 6.07 1.406 0 .518-.632.895-2.234 1.289-1.356.333-2.557.48-3.435.386v1.39c.74.173 2.095.032 3.235-.248 3.235-.795 4.514-1.834 4.514-3.624 0-3.505-6.255-.074-6.255-1.82zm2.141-2.198c-.893.22-1.479-.169-1.479-.967 0-.799.601-1.48 1.48-1.695.877-.216 1.478.169 1.478.968 0 .798-.6 1.478-1.479 1.694zm6.656-6.723c.74-.182 1.294-.836 1.294-1.546 0-.71-.555-1.09-1.294-.91-.74.183-1.28.833-1.28 1.543s.54 1.095 1.28.913zm-1.079 1.507v7.986l2.157-.53V38.23zm8.427 4.436c-.832.205-1.386-.206-1.386-1.034v-3.653l2.465-.606v-1.48l-2.465.607v-2.337l-2.157 1.122v1.745l-1.202.295v1.48l1.202-.296v3.978c0 1.612 1.14 2.397 2.85 1.976a12.272 12.272 0 001.849-.631v-1.524c-.386.14-.77.264-1.156.358zm9.567-6.049c0-1.863-1.325-2.632-3.574-2.079-1.202.295-2.403.783-3.25 1.302v1.508c.893-.456 1.956-.865 2.803-1.073 1.186-.292 1.864.104 1.864 1.065v.473a6.657 6.657 0 00-1.956.17c-2.142.527-3.39 1.75-3.39 3.318s1.156 2.2 3.066 1.731a8.284 8.284 0 002.558-1.131c.523.137 1.201.133 1.88-.033zm-5.269 4.09c0-.694.647-1.253 1.695-1.51a3.482 3.482 0 011.417-.068v1.598a4.91 4.91 0 01-1.417.614c-1.048.258-1.695.032-1.695-.633zm7.395.564l2.157-.53V29.587l-2.157 1.121zm5.47-1.196c.77-.19 1.401-.951 1.401-1.69 0-.74-.632-1.191-1.402-1.002-.77.19-1.402.951-1.402 1.69 0 .74.632 1.191 1.402 1.002zm7.733-10.183a7.75 7.75 0 00-2.496 1.131c-.508-.17-1.155-.16-1.91.026v11.314l2.156-.53v-3.683c.663.207 1.464.217 2.265.02 2.496-.613 4.16-2.693 4.16-5.193 0-2.47-1.68-3.698-4.175-3.085zm-.509 6.78c-.57.14-1.186.1-1.74-.104v-4.112c.57-.377 1.17-.672 1.694-.8 1.525-.376 2.496.391 2.496 1.885 0 1.523-.97 2.768-2.45 3.131zm10.446-.941c2.65-.65 4.452-2.75 4.452-5.235 0-2.484-1.803-3.698-4.453-3.046-2.68.659-4.467 2.754-4.467 5.239 0 2.484 1.787 3.702 4.467 3.043zm-.016-1.622c-1.34.33-2.234-.457-2.234-1.965 0-1.509.894-2.734 2.234-3.064 1.325-.325 2.234.457 2.234 1.965 0 1.509-.91 2.738-2.234 3.064zM83.792 24.14a65.465 65.465 0 01-1.772 4.872 28.812 28.812 0 01-1.88-3.975l-1.725.424c-.493 1.585-1.155 3.271-1.864 4.895a32.983 32.983 0 01-1.756-4.005l-2.327.572a92.502 92.502 0 003.898 7.176l.123-.03c.94-1.859 1.91-4.034 2.789-6.217.893 1.747 1.848 3.45 2.773 4.85l.123-.031a145.925 145.925 0 003.913-9.096zm10.814 1.216c0-2.41-1.617-3.625-4.005-3.038-2.403.59-4.021 2.674-4.021 5.188 0 2.648 1.648 3.677 4.129 3.067 1.155-.284 2.48-.831 3.312-1.361v-1.523c-.878.482-2.018.94-2.82 1.136-1.663.41-2.233-.057-2.387-1.187l5.715-1.405c.031-.244.077-.596.077-.877zm-4.005-1.47c1.063-.262 1.664.36 1.802 1.538l-3.605.886c.124-1.228.725-2.16 1.803-2.424zm10.569-4.166c-1.08.265-1.988.651-2.882 1.256-.539-.178-1.186-.182-1.972.011v8.06l2.157-.53V22.69c.694-.392 1.572-.741 2.696-1.018z"/></svg>